<svg width="85" height="79" viewBox="0 0 85 79" fill="none" xmlns="http://www.w3.org/2000/svg">
<path d="M71.7188 34.5625V19.75" stroke="#2D00E0" stroke-width="2" stroke-linecap="round" stroke-linejoin="round"/>
<path d="M79.6875 27.1562H63.75" stroke="#2D00E0" stroke-width="2" stroke-linecap="round" stroke-linejoin="round"/>
<path d="M55.7812 7.40625V17.2812" stroke="#2D00E0" stroke-width="2" stroke-linecap="round" stroke-linejoin="round"/>
<path d="M61.0938 12.3438H50.4688" stroke="#2D00E0" stroke-width="2" stroke-linecap="round" stroke-linejoin="round"/>
<path d="M71.9387 47.1066C66.7244 48.4533 61.2189 48.4888 55.9851 47.2094C50.7513 45.9301 45.9769 43.3818 42.1501 39.8252C38.3234 36.2686 35.5816 31.8312 34.2051 26.9669C32.8285 22.1025 32.8667 16.9856 34.3156 12.1394L34.3164 12.1397C29.1735 13.4694 24.4952 16.0283 20.7476 19.5616C16.9999 23.0948 14.3138 27.479 12.9568 32.2774C11.5997 37.0758 11.6192 42.121 13.0131 46.9103C14.407 51.6996 17.1268 56.0658 20.9015 59.574C24.6763 63.0823 29.3741 65.61 34.5272 66.9055C39.6802 68.201 45.1085 68.219 50.2714 66.9577C55.4342 65.6964 60.1514 63.1999 63.9529 59.7168C67.7545 56.2336 70.5077 51.8856 71.9384 47.1056L71.9387 47.1066Z" stroke="#2D00E0" stroke-width="2" stroke-linecap="round" stroke-linejoin="round"/>
</svg>
